<?xml version="1.0" encoding="UTF-8" standalone="no"?>
<!-- Created with Inkscape (http://www.inkscape.org/) -->

<svg
   width="23.29888mm"
   height="12.7mm"
   viewBox="0 0 23.298879 12.7"
   version="1.1"
   id="svg1"
   inkscape:version="1.3 (0e150ed6c4, 2023-07-21)"
   sodipodi:docname="titleapp.svg"
   xmlns:inkscape="http://www.inkscape.org/namespaces/inkscape"
   xmlns:sodipodi="http://sodipodi.sourceforge.net/DTD/sodipodi-0.dtd"
   xmlns="http://www.w3.org/2000/svg"
   xmlns:svg="http://www.w3.org/2000/svg">
  <sodipodi:namedview
     id="namedview1"
     pagecolor="#ffffff"
     bordercolor="#000000"
     borderopacity="0.25"
     inkscape:showpageshadow="2"
     inkscape:pageopacity="0.0"
     inkscape:pagecheckerboard="0"
     inkscape:deskcolor="#d1d1d1"
     inkscape:document-units="mm"
     inkscape:zoom="4.1172106"
     inkscape:cx="48.81946"
     inkscape:cy="1.8216217"
     inkscape:window-width="1920"
     inkscape:window-height="1009"
     inkscape:window-x="1912"
     inkscape:window-y="-8"
     inkscape:window-maximized="1"
     inkscape:current-layer="layer1"
     showgrid="false" />
  <defs
     id="defs1">
    <clipPath
       clipPathUnits="userSpaceOnUse"
       id="clipPath222-0">
      <path
         d="M 0,1920 H 1080 V 0 H 0 Z"
         id="path220-0" />
    </clipPath>
  </defs>
  <g
     inkscape:label="Camada 1"
     inkscape:groupmode="layer"
     id="layer1"
     transform="translate(-63.235418,-134.67291)">
    <g
       id="g6031"
       inkscape:export-filename="..\..\GitHub\Site-Filmes-Nextjs\app-next\src\app\images\personagens-pag0.png"
       inkscape:export-xdpi="96"
       inkscape:export-ydpi="96"
       transform="matrix(0.0387939,0,0,-0.0387939,52.982539,168.73295)"
       style="stroke-width:9.09364"
       inkscape:label="Logo">
      <g
         id="g6029"
         clip-path="url(#clipPath222-0)"
         style="stroke-width:9.09364">
        <g
           id="g5815"
           transform="translate(290.545,827.067)"
           style="stroke-width:9.09364">
          <path
             d="m 0,0 c 0,-24.275 0,-36.33 0,-60.273 1.75,-0.763 2.625,-1.136 4.375,-1.865 2.645,-1.101 4.461,-1.617 5.449,-1.6 3.453,0.21 5.182,2.809 5.182,7.624 0,16.998 0,25.564 0,42.828 0,6.972 -2.759,10.933 -8.278,11.974 C 4.037,-0.805 2.691,-0.542 0,0 M -19.045,23.025 C -7.955,21.553 -2.41,20.906 8.68,19.765 25.593,17.972 34.048,5.784 34.048,-16.849 c 0,-18.227 0,-27.238 0,-45.052 0,-16.32 -6.08,-25.125 -18.234,-24.507 -2.918,0.156 -7.158,1.477 -12.718,4.201 -1.238,0.606 -1.858,0.915 -3.096,1.542 0,-16.942 0,-25.372 0,-42.147 -7.618,4.857 -11.427,7.545 -19.045,13.505 0.001,44.11 0.001,88.221 0,132.332"
             style="fill:#4c0d22;fill-opacity:1;fill-rule:nonzero;stroke:none;stroke-width:9.09364"
             id="path5813" />
        </g>
        <g
           id="g5819"
           transform="translate(373.044,807.284)"
           style="stroke-width:9.09364">
          <path
             d="m 0,0 c 0,7.855 -2.759,12.024 -8.278,12.486 -0.054,0.004 -0.081,0.006 -0.135,0.01 -5.474,0.399 -8.209,-3.287 -8.209,-11.055 0,-33.751 0,-67.502 0,-101.253 0,-7.195 2.76,-11.362 8.278,-12.263 5.561,-0.908 8.344,2.36 8.344,9.59 C 0,-68.323 0,-34.162 0,0 m 19.042,-104.091 c 0,-22.311 -9.158,-33.311 -27.386,-30.327 -18.195,2.978 -27.32,17.275 -27.32,39.262 0.001,32.947 0.001,65.893 0,98.84 0,23.314 9.104,34.688 27.32,33.955 C 9.914,36.904 19.042,23.721 19.042,-1.11 Z"
             style="fill:#4c0d22;fill-opacity:1;fill-rule:nonzero;stroke:none;stroke-width:9.09364"
             id="path5817" />
        </g>
        <g
           id="g5823"
           transform="translate(427.281,814.755)"
           style="stroke-width:9.09364">
          <path
             d="m 0,0 v -26.956 c 1.75,0.013 2.625,0.023 4.375,0.048 2.645,0.037 4.461,0.311 5.449,0.803 3.453,1.899 5.182,5.616 5.182,11.218 v 2.867 c 0,8.015 -2.759,12.072 -8.277,12.039 C 4.037,0.003 2.691,-0.001 0,0 M -19.045,26.112 C -7.955,25.956 -2.41,25.928 8.68,25.943 25.593,25.902 34.048,12.855 34.048,-11.459 v -2.828 c 0,-15.221 -5.002,-25.106 -15.006,-30.265 6.203,-29.485 13.17,-59.073 21.398,-88.07 -8.343,-2.078 -12.515,-3.01 -20.858,-4.578 C 13.178,-108.122 7.554,-78.781 2.423,-49.455 1.454,-49.651 0.969,-49.747 0,-49.939 v -90.292 c -7.618,-0.915 -11.427,-1.243 -19.045,-1.579 0,55.974 0,111.948 0,167.922"
             style="fill:#4c0d22;fill-opacity:1;fill-rule:nonzero;stroke:none;stroke-width:9.09364"
             id="path5821" />
        </g>
        <g
           id="g5827"
           transform="translate(524.651,845.929)"
           style="stroke-width:9.09364">
          <path
             d="m 0,0 v -21.894 c -7.134,-1.179 -10.701,-1.76 -17.835,-2.892 v -126.689 c -7.616,-2.698 -11.425,-3.995 -19.041,-6.422 v 130.175 c -7.133,-1.064 -10.699,-1.58 -17.832,-2.565 V -4.859 C -32.825,-3.097 -21.883,-2.084 0,0"
             style="fill:#4c0d22;fill-opacity:1;fill-rule:nonzero;stroke:none;stroke-width:9.09364"
             id="path5825" />
        </g>
        <g
           id="g5831"
           transform="translate(590.795,752.465)"
           style="stroke-width:9.09364">
          <path
             d="m 0,0 c 0,-17.99 -9.139,-30.923 -27.386,-38.326 -18.186,-7.377 -27.319,-1.652 -27.319,17.557 V 94.563 c 7.616,0.737 11.425,1.112 19.041,1.862 V -13.594 c 0,-6.058 2.76,-7.996 8.278,-5.834 5.561,2.179 8.344,6.245 8.344,12.186 V 98.065 c 7.617,0.753 11.425,1.129 19.042,1.874 z"
             style="fill:#4c0d22;fill-opacity:1;fill-rule:nonzero;stroke:none;stroke-width:9.09364"
             id="path5829" />
        </g>
        <g
           id="g5835"
           transform="translate(641.937,828.091)"
           style="stroke-width:9.09364">
          <path
             d="m 0,0 v 10.379 c 0,4.484 -2.759,6.262 -8.275,5.47 -0.054,-0.008 -0.081,-0.012 -0.135,-0.02 -5.474,-0.82 -8.209,-3.591 -8.209,-8.413 v -70.484 c 0,-5.595 2.756,-7.464 8.275,-5.581 C -2.78,-66.751 0,-63.02 0,-57.505 v 12.369 c -3.095,-0.959 -4.642,-1.447 -7.737,-2.44 v 16.721 c 10.712,3.142 16.069,4.645 26.782,7.41 v -28.247 c 0,-16.875 -9.144,-28.772 -27.389,-35.122 -18.187,-6.33 -27.32,-0.771 -27.32,16.947 v 73.73 c 0,16.077 9.107,24.53 27.32,26.036 18.258,1.508 27.389,-3.335 27.389,-16.333 V 3.865 C 11.427,2.385 7.618,1.607 0,0"
             style="fill:#4c0d22;fill-opacity:1;fill-rule:nonzero;stroke:none;stroke-width:9.09364"
             id="path5833" />
        </g>
        <g
           id="g5839"
           transform="translate(731.165,784.621)"
           style="stroke-width:9.09364">
          <path
             d="m 0,0 c 0,-14.825 -9.145,-22.829 -27.386,-25.44 -18.19,-2.604 -27.319,4.1 -27.319,20.572 V 74.83 c 7.616,0.092 11.425,0.124 19.041,0.151 V -2.175 c 0,-5.078 2.76,-7.309 8.278,-6.72 5.561,0.594 8.344,3.322 8.344,8.241 V 74.969 C -11.425,74.931 -7.617,74.893 0,74.769 Z"
             style="fill:#4c0d22;fill-opacity:1;fill-rule:nonzero;stroke:none;stroke-width:9.09364"
             id="path5837" />
        </g>
        <g
           id="g5843"
           transform="translate(747.787,862.207)"
           style="stroke-width:9.09364">
          <path
             d="m 0,0 c 5.76,4.006 8.64,5.989 14.4,10.087 h 17.766 c 5.868,-4.356 8.802,-6.682 14.67,-11.711 -5.761,0.283 -8.642,0.41 -14.403,0.64 -3.66,1.805 -5.489,2.671 -9.149,4.343 C 19.65,1.848 17.833,1.109 14.199,-0.357 8.519,-0.192 5.68,-0.121 0,0 M -1.279,-3.141 C 18.477,-3.658 28.356,-4.068 48.112,-5.34 v -13.451 c -12.139,1.379 -18.208,1.914 -30.346,2.742 v -39.073 c 10.442,-1.288 15.664,-2.146 26.106,-4.384 v -14.725 c -10.442,2.519 -15.664,3.464 -26.106,4.846 v -15.882 c 12.138,-1.656 18.207,-2.886 30.346,-6.367 v -15.499 c -19.756,6.052 -29.635,7.497 -49.391,8.293 z"
             style="fill:#4c0d22;fill-opacity:1;fill-rule:nonzero;stroke:none;stroke-width:9.09364"
             id="path5841" />
        </g>
        <g
           id="g5847"
           transform="translate(845.83,817.328)"
           style="stroke-width:9.09364">
          <path
             d="m 0,0 v 12.009 c 0,5.395 -2.783,8.641 -8.344,9.629 -5.518,0.981 -8.278,-1.061 -8.278,-6.041 v -2.025 c 0,-5.325 5.945,-12.537 17.832,-24.453 11.867,-11.895 17.832,-25.557 17.832,-37.714 v -25.032 c 0,-18.484 -9.107,-19.586 -27.32,-8.901 -18.258,10.712 -27.386,21.424 -27.386,36.804 v 14.662 c 7.617,-2.42 11.425,-3.792 19.042,-6.907 v -15.465 c 0,-5.182 2.76,-9.067 8.278,-12.054 0.054,-0.029 0.081,-0.043 0.135,-0.072 C -2.738,-68.485 0,-67.394 0,-61.87 v 22.716 c 0,5.402 -5.946,15.062 -17.832,26.023 C -29.7,-2.187 -35.664,6.701 -35.664,15.862 v 3.117 c 0,14.274 9.125,20.61 27.32,18.876 C 9.897,36.116 19.042,25.604 19.042,7.122 V -6.134 C 11.425,-3.459 7.617,-2.237 0,0"
             style="fill:#4c0d22;fill-opacity:1;fill-rule:nonzero;stroke:none;stroke-width:9.09364"
             id="path5845" />
        </g>
        <g
           id="g5851"
           transform="translate(290.07,655.253)"
           style="stroke-width:9.09364">
          <path
             d="m 0,0 c 0,-20.353 0,-30.449 0,-50.479 1.75,-0.507 2.625,-0.755 4.375,-1.24 2.645,-0.734 4.465,-1.055 5.449,-1.004 3.456,0.291 5.182,2.221 5.182,5.81 v 32.001 c 0,5.222 -2.759,8.979 -8.277,11.597 C 4.037,-2.038 2.691,-1.375 0,0 M -19.042,29.528 C -7.953,21.734 -2.409,18.38 8.68,12.594 25.593,3.728 34.051,-6.617 34.051,-21.748 c 0,-12.186 0,-18.176 0,-29.952 0,-10.788 -6.08,-16.532 -18.237,-17.644 -2.915,-0.263 -7.155,0.085 -12.718,1.19 -1.238,0.245 -1.858,0.37 -3.096,0.624 0,-14.162 0,-21.202 0,-35.201 -7.617,0.086 -11.425,0.132 -19.042,0.233 0.001,44.009 0.001,88.017 0,132.026"
             style="fill:#4c0d22;fill-opacity:1;fill-rule:nonzero;stroke:none;stroke-width:9.09364"
             id="path5849" />
        </g>
        <g
           id="g5855"
           transform="translate(364.832,622.265)"
           style="stroke-width:9.09364">
          <path
             d="m 0,0 c -5.383,-30.047 -8.074,-43.577 -13.457,-70.252 -7.672,0.043 -11.508,0.067 -19.18,0.123 6.763,32.021 13.279,64.08 19.648,96.182 10.444,-2.346 15.666,-3.166 26.11,-4.235 5.91,-30.889 11.717,-61.782 19.582,-92.251 -7.698,0.018 -11.547,0.029 -19.246,0.057 C 8.074,-45.971 5.383,-31.632 0,0"
             style="fill:#4c0d22;fill-opacity:1;fill-rule:nonzero;stroke:none;stroke-width:9.09364"
             id="path5853" />
        </g>
        <g
           id="g5859"
           transform="translate(409.311,642.909)"
           style="stroke-width:9.09364">
          <path
             d="m 0,0 c 7.617,0.181 11.425,0.409 19.042,1.088 0,-30.736 0,-61.472 0,-92.208 C 11.425,-91.115 7.617,-91.111 0,-91.099 0,-60.733 0,-30.366 0,0"
             style="fill:#4c0d22;fill-opacity:1;fill-rule:nonzero;stroke:none;stroke-width:9.09364"
             id="path5857" />
        </g>
        <g
           id="g5863"
           transform="translate(499.412,642.075)"
           style="stroke-width:9.09364">
          <path
             d="m 0,0 v -76.776 c 3.338,0.285 5.006,0.429 8.344,0.72 5.518,0.481 8.275,3.056 8.275,7.826 V -2.809 C 16.619,2.664 13.862,4.514 8.344,2.7 5.006,1.602 3.338,1.062 0,0 m -19.045,11.23 c 11.736,3.526 17.604,5.482 29.341,9.587 16.909,5.872 25.367,0.12 25.367,-17.287 v -69.372 c 0,-16.069 -8.86,-23.87 -26.58,-24.071 -11.251,-0.108 -16.877,-0.16 -28.128,-0.259 z"
             style="fill:#4c0d22;fill-opacity:1;fill-rule:nonzero;stroke:none;stroke-width:9.09364"
             id="path5861" />
        </g>
        <g
           id="g5867"
           transform="translate(551.226,678.36)"
           style="stroke-width:9.09364">
          <path
             d="M 0,0 C 9.421,3.634 14.131,5.482 23.552,9.141 V -10.41 c -2.88,-10.948 -4.32,-16.392 -7.2,-27.094 -4.953,-1.571 -7.43,-2.357 -12.383,-3.922 1.562,9.043 2.342,13.626 3.903,22.861 C 4.723,-19.696 3.149,-20.261 0,-21.386 Z"
             style="fill:#4c0d22;fill-opacity:1;fill-rule:nonzero;stroke:none;stroke-width:9.09364"
             id="path5865" />
        </g>
        <g
           id="g5871"
           transform="translate(616.431,708.529)"
           style="stroke-width:9.09364">
          <path
             d="m 0,0 c -4.226,-1.545 -6.339,-2.332 -10.566,-3.923 3.822,8.466 5.733,12.695 9.554,21.047 5.976,2.238 8.964,3.331 14.941,5.437 C 8.357,13.662 5.571,9.116 0,0 M -24.158,-14.345 C -4.402,-6.797 5.477,-3.067 25.233,3.378 v -20.341 c -12.14,-3.773 -18.21,-5.813 -30.349,-10.014 v -60.828 c 10.444,2.364 15.666,3.522 26.11,5.727 v -23.055 c -10.444,-1.627 -15.666,-2.478 -26.11,-4.213 v -23.637 c 12.139,1.097 18.209,1.635 30.349,2.654 v -24.716 c -19.756,-0.182 -29.635,-0.281 -49.391,-0.481 z"
             style="fill:#4c0d22;fill-opacity:1;fill-rule:nonzero;stroke:none;stroke-width:9.09364"
             id="path5869" />
        </g>
        <g
           id="g5875"
           transform="translate(690.112,677.684)"
           style="stroke-width:9.09364">
          <path
             d="m 0,0 v 16.206 c 0,7.033 -2.759,10.201 -8.275,9.535 -0.054,-0.007 -0.081,-0.011 -0.135,-0.018 -5.473,-0.714 -8.209,-4.494 -8.209,-11.401 v -102.2 c 0,-8.197 2.757,-12.367 8.275,-12.323 5.564,0.044 8.344,4.282 8.344,12.545 v 18.596 c -3.095,-0.052 -4.642,-0.084 -7.737,-0.156 v 24.901 c 10.712,0.45 16.069,0.597 26.782,0.668 v -43.954 c 0,-25.699 -9.163,-39.448 -27.389,-39.48 -18.18,-0.033 -27.32,13.224 -27.32,37.812 v 99.285 c 0,20.922 9.107,33.786 27.32,36.866 C 9.914,49.969 19.045,40.04 19.045,17.587 V 1.039 C 11.427,0.783 7.618,0.568 0,0"
             style="fill:#4c0d22;fill-opacity:1;fill-rule:nonzero;stroke:none;stroke-width:9.09364"
             id="path5873" />
        </g>
        <g
           id="g5879"
           transform="translate(779.34,587.919)"
           style="stroke-width:9.09364">
          <path
             d="m 0,0 c 0,-24.512 -9.159,-37.284 -27.386,-37.316 -18.181,-0.032 -27.319,13.618 -27.319,39.346 v 136.651 c 7.616,0.234 11.425,0.226 19.041,-0.095 V 1.617 c 0,-8.219 2.76,-12.447 8.278,-12.59 5.561,-0.144 8.344,3.874 8.344,11.983 v 136.297 c 7.617,-0.859 11.425,-1.444 19.042,-2.978 z"
             style="fill:#4c0d22;fill-opacity:1;fill-rule:nonzero;stroke:none;stroke-width:9.09364"
             id="path5877" />
        </g>
        <g
           id="g5883"
           transform="translate(822.744,673.867)"
           style="stroke-width:9.09364">
          <path
             d="m 0,0 c -4.788,-40.143 -9.261,-80.324 -13.457,-120.534 -7.672,0.059 -11.508,0.086 -19.18,0.132 6.118,53.485 12.463,106.94 19.648,160.294 10.444,-3.764 15.666,-6.013 26.11,-11.379 6.265,-49.867 12.59,-99.733 19.582,-149.505 -7.698,0.095 -11.547,0.138 -19.246,0.217 C 8.865,-80.529 4.419,-40.266 0,0"
             style="fill:#4c0d22;fill-opacity:1;fill-rule:nonzero;stroke:none;stroke-width:9.09364"
             id="path5881" />
        </g>
        <g
           id="g5887"
           transform="translate(284.204,832.351)"
           style="stroke-width:9.09364">
          <path
             d="m 0,0 c 0,-24.275 0,-36.33 0,-60.273 1.75,-0.763 2.625,-1.136 4.375,-1.865 2.645,-1.101 4.461,-1.617 5.449,-1.6 3.453,0.21 5.182,2.809 5.182,7.624 0,16.998 0,25.564 0,42.828 0,6.972 -2.759,10.933 -8.278,11.974 C 4.037,-0.805 2.691,-0.542 0,0 M -19.045,23.025 C -7.955,21.553 -2.41,20.906 8.68,19.765 25.593,17.972 34.048,5.784 34.048,-16.848 c 0,-18.228 0,-27.239 0,-45.053 0,-16.32 -6.08,-25.125 -18.234,-24.507 -2.918,0.156 -7.158,1.477 -12.718,4.201 -1.238,0.606 -1.858,0.915 -3.096,1.542 0,-16.942 0,-25.372 0,-42.147 -7.618,4.857 -11.427,7.545 -19.045,13.505 0.001,44.11 0.001,88.221 0,132.332"
             style="fill:#ffffff;fill-opacity:1;fill-rule:nonzero;stroke:none;stroke-width:9.09364"
             id="path5885" />
        </g>
        <g
           id="g5891"
           transform="translate(284.601,772.338)"
           style="stroke-width:9.09364">
          <path
             d="m 0,0 c 1.592,-0.694 2.464,-1.065 4.13,-1.759 3.166,-1.318 4.609,-1.583 5.291,-1.57 3.174,0.194 4.792,2.626 4.792,7.229 v 42.828 c 0,6.785 -2.602,10.575 -7.955,11.584 C 3.728,58.789 2.386,59.049 0,59.529 Z m 9.397,-4.121 c -1.104,0 -2.972,0.549 -5.571,1.631 -1.752,0.729 -2.628,1.103 -4.381,1.867 l -0.238,0.104 v 61.016 l 0.475,-0.095 c 2.689,-0.542 4.034,-0.804 6.723,-1.311 5.707,-1.076 8.601,-5.236 8.601,-12.363 V 3.9 c 0,-6.349 -3.021,-7.866 -5.554,-8.02 C 9.433,-4.121 9.415,-4.121 9.397,-4.121 m -28.442,-44.98 c 7.253,-5.67 10.982,-8.325 18.252,-12.974 v 42.069 l 0.576,-0.292 c 1.236,-0.626 1.855,-0.934 3.091,-1.54 5.23,-2.562 9.575,-4.001 12.565,-4.161 4.816,-0.245 8.722,1.024 11.613,3.772 4.116,3.913 6.203,10.756 6.203,20.34 v 45.052 c 0,22.274 -8.415,34.46 -25.013,36.219 -11.171,1.15 -16.62,1.788 -27.287,3.202 z m 19.044,-14.42 -0.609,0.388 c -7.754,4.944 -11.498,7.599 -19.075,13.527 l -0.153,0.119 V 83.491 l 0.449,-0.06 C -8.433,81.977 -2.994,81.337 8.324,80.172 25.394,78.363 34.048,65.912 34.048,43.165 V -1.887 c 0,-9.81 -2.17,-16.846 -6.45,-20.914 -3.055,-2.903 -7.16,-4.246 -12.2,-3.989 -3.142,0.168 -7.472,1.594 -12.873,4.24 -1.033,0.506 -1.636,0.805 -2.525,1.254 z"
             style="fill:#000000;fill-opacity:1;fill-rule:nonzero;stroke:none;stroke-width:9.09364"
             id="path5889" />
        </g>
        <g
           id="g5895"
           transform="translate(366.703,812.568)"
           style="stroke-width:9.09364">
          <path
             d="m 0,0 c 0,7.855 -2.759,12.024 -8.278,12.486 -0.054,0.004 -0.081,0.006 -0.135,0.01 -5.474,0.399 -8.209,-3.287 -8.209,-11.055 0,-33.751 0,-67.502 0,-101.253 0,-7.195 2.76,-11.362 8.278,-12.263 5.561,-0.908 8.344,2.36 8.344,9.59 C 0,-68.323 0,-34.161 0,0 m 19.042,-104.091 c 0,-22.311 -9.158,-33.311 -27.386,-30.327 -18.195,2.978 -27.32,17.275 -27.32,39.262 0.001,32.947 0.001,65.893 0,98.84 0,23.314 9.104,34.688 27.32,33.955 C 9.914,36.904 19.042,23.721 19.042,-1.11 Z"
             style="fill:#ffffff;fill-opacity:1;fill-rule:nonzero;stroke:none;stroke-width:9.09364"
             id="path5893" />
        </g>
        <g
           id="g5899"
           transform="translate(357.519,824.696)"
           style="stroke-width:9.09364">
          <path
             d="M 0,0 C -1.797,0 -3.257,-0.512 -4.348,-1.526 -6.135,-3.187 -7.041,-6.27 -7.041,-10.687 V -111.94 c 0,-7.017 2.673,-11.011 7.946,-11.872 2.276,-0.371 4.075,-0.012 5.348,1.07 1.682,1.43 2.535,4.165 2.535,8.129 v 102.485 c 0,7.691 -2.589,11.646 -7.914,12.091 L 0.742,-0.028 C 0.489,-0.009 0.241,0 0,0 m 2.553,-124.747 c -0.561,0 -1.153,0.051 -1.776,0.153 -5.714,0.933 -8.611,5.19 -8.611,12.654 v 101.253 c 0,4.647 0.992,7.924 2.946,9.741 1.406,1.307 3.321,1.881 5.688,1.709 L 0.935,0.753 C 6.673,0.273 9.58,-4.061 9.58,-12.128 H 9.184 9.58 l 10e-4,-102.485 c -10e-4,-4.208 -0.947,-7.146 -2.814,-8.732 -1.098,-0.933 -2.51,-1.402 -4.214,-1.402 M -0.766,25.147 c -7.073,0 -12.72,-1.983 -16.805,-5.906 -5.648,-5.426 -8.512,-14.74 -8.512,-27.685 v -98.84 c 0,-22.54 9.332,-35.981 26.987,-38.871 7.741,-1.267 13.925,0.009 18.38,3.794 5.671,4.817 8.546,13.613 8.546,26.142 v 102.981 c 0,24.728 -9.086,37.631 -27.005,38.353 -0.538,0.021 -1.069,0.032 -1.591,0.032 m 7.178,-172.569 c -1.78,0 -3.66,0.161 -5.636,0.485 -17.831,2.918 -27.652,17.001 -27.652,39.653 v 98.84 c 0,13.169 2.946,22.676 8.756,28.256 4.547,4.368 10.926,6.418 18.977,6.095 18.423,-0.742 27.765,-13.912 27.765,-39.145 v -102.981 c 0,-12.772 -2.969,-21.771 -8.825,-26.747 -3.491,-2.965 -7.978,-4.456 -13.385,-4.456"
             style="fill:#000000;fill-opacity:1;fill-rule:nonzero;stroke:none;stroke-width:9.09364"
             id="path5897" />
        </g>
        <g
           id="g5903"
           transform="translate(420.94,820.039)"
           style="stroke-width:9.09364">
          <path
             d="m 0,0 v -26.956 c 1.75,0.013 2.625,0.023 4.375,0.048 2.645,0.037 4.461,0.311 5.449,0.803 3.453,1.899 5.182,5.616 5.182,11.218 v 2.867 c 0,8.015 -2.759,12.072 -8.277,12.039 C 4.037,0.003 2.691,-0.001 0,0 M -19.045,26.112 C -7.955,25.956 -2.41,25.928 8.68,25.943 25.593,25.902 34.048,12.855 34.048,-11.459 v -2.828 c 0,-15.221 -5.002,-25.106 -15.006,-30.265 6.203,-29.485 13.17,-59.073 21.398,-88.07 -8.343,-2.078 -12.515,-3.01 -20.858,-4.578 C 13.178,-108.122 7.554,-78.781 2.423,-49.455 1.454,-49.651 0.969,-49.747 0,-49.938 v -90.293 c -7.618,-0.915 -11.427,-1.243 -19.045,-1.579 0,55.974 0,111.948 0,167.922"
             style="fill:#ffffff;fill-opacity:1;fill-rule:nonzero;stroke:none;stroke-width:9.09364"
             id="path5901" />
        </g>
        <g
           id="g5907"
           transform="translate(421.337,819.642)"
           style="stroke-width:9.09364">
          <path
             d="m 0,0 v -26.16 c 1.493,0.012 2.362,0.022 3.973,0.045 2.56,0.036 4.336,0.292 5.278,0.761 3.335,1.834 4.963,5.39 4.963,10.863 v 2.867 c 0,4.643 -0.945,7.937 -2.81,9.79 C 10.155,-0.592 8.451,0.03 6.335,0.019 3.778,0.004 2.437,-0.002 0,0 M -0.793,-26.959 V 0.793 h 0.397 c 2.689,-0.002 4.035,0.002 6.726,0.019 2.371,0.019 4.228,-0.687 5.633,-2.083 2.02,-2.008 3.043,-5.491 3.043,-10.353 v -2.867 c 0,-5.708 -1.812,-9.599 -5.387,-11.565 -1.064,-0.53 -2.954,-0.814 -5.635,-0.852 -1.751,-0.025 -2.626,-0.035 -4.377,-0.048 z M -19.045,26.107 V -141 c 7.097,0.319 10.829,0.63 18.252,1.517 v 90.267 l 3.14,0.626 0.07,-0.401 c 5.607,-32.045 11.192,-60.622 17.073,-87.352 7.739,1.459 11.828,2.356 20.061,4.404 -7.427,26.215 -14.394,54.909 -21.294,87.702 l -0.062,0.295 0.269,0.138 c 9.953,5.133 14.791,14.917 14.791,29.913 v 2.828 c 0,24.516 -8.401,36.966 -24.972,37.006 -11.346,-0.015 -16.801,0.017 -27.328,0.164 m -0.793,-167.935 V 26.911 l 0.402,-0.006 c 10.788,-0.152 16.227,-0.184 27.719,-0.17 16.856,-0.04 25.765,-13.11 25.765,-37.798 v -2.828 c 0,-15.186 -4.893,-25.159 -14.953,-30.477 6.91,-32.816 13.888,-61.523 21.33,-87.749 l 0.111,-0.394 -0.396,-0.099 c -8.654,-2.155 -12.752,-3.055 -20.881,-4.583 l -0.378,-0.071 -0.083,0.375 C 12.91,-110.152 7.318,-81.57 1.706,-49.527 L 0,-49.867 v -90.319 l -0.349,-0.042 c -7.826,-0.94 -11.57,-1.25 -19.075,-1.582 z"
             style="fill:#000000;fill-opacity:1;fill-rule:nonzero;stroke:none;stroke-width:9.09364"
             id="path5905" />
        </g>
        <g
           id="g5911"
           transform="translate(518.31,851.213)"
           style="stroke-width:9.09364">
          <path
             d="m 0,0 v -21.894 c -7.134,-1.179 -10.701,-1.76 -17.835,-2.892 v -126.689 c -7.616,-2.699 -11.425,-3.995 -19.041,-6.422 v 130.175 c -7.133,-1.064 -10.699,-1.58 -17.832,-2.565 V -4.859 C -32.825,-3.097 -21.883,-2.084 0,0"
             style="fill:#ffffff;fill-opacity:1;fill-rule:nonzero;stroke:none;stroke-width:9.09364"
             id="path5909" />
        </g>
        <g
           id="g5915"
           transform="translate(481.83,823.951)"
           style="stroke-width:9.09364">
          <path
             d="m 0,0 v -130.092 c 7.335,2.34 11.123,3.636 18.249,6.159 V 2.814 l 0.335,0.053 c 7.021,1.115 10.586,1.695 17.5,2.837 V 26.826 C 14.548,24.776 3.464,23.754 -17.831,22.038 V -2.57 c 6.632,0.917 10.138,1.422 17.376,2.502 z M -0.793,-131.177 V -0.919 C -7.888,-1.978 -11.386,-2.48 -18.174,-3.417 l -0.45,-0.062 v 26.248 l 0.364,0.029 c 21.672,1.745 32.762,2.769 54.703,4.859 l 0.434,0.041 V 5.032 L 36.545,4.977 C 29.522,3.817 25.955,3.235 19.042,2.138 v -126.631 l -0.264,-0.094 c -7.473,-2.647 -11.274,-3.947 -19.054,-6.425 z"
             style="fill:#000000;fill-opacity:1;fill-rule:nonzero;stroke:none;stroke-width:9.09364"
             id="path5913" />
        </g>
        <g
           id="g5919"
           transform="translate(584.455,757.749)"
           style="stroke-width:9.09364">
          <path
             d="m 0,0 c 0,-17.99 -9.139,-30.923 -27.386,-38.326 -18.186,-7.377 -27.319,-1.652 -27.319,17.557 V 94.563 c 7.616,0.737 11.425,1.112 19.041,1.862 V -13.594 c 0,-6.058 2.76,-7.996 8.278,-5.834 5.561,2.179 8.344,6.245 8.344,12.186 V 98.065 c 7.617,0.753 11.425,1.129 19.042,1.874 z"
             style="fill:#ffffff;fill-opacity:1;fill-rule:nonzero;stroke:none;stroke-width:9.09364"
             id="path5917" />
        </g>
        <g
           id="g5923"
           transform="translate(530.146,851.952)"
           style="stroke-width:9.09364">
          <path
             d="m 0,0 v -114.972 c 0,-9.246 2.168,-15.395 6.444,-18.274 4.403,-2.966 11.244,-2.601 20.33,1.085 18.008,7.305 27.138,20.076 27.138,37.958 V 5.299 C 46.867,4.61 43.077,4.235 36.159,3.552 L 35.663,3.503 v -104.948 c 0,-6.096 -2.892,-10.32 -8.595,-12.555 -2.849,-1.116 -5.048,-1.167 -6.534,-0.153 -1.516,1.034 -2.285,3.173 -2.285,6.356 V 1.784 C 11.037,1.074 7.236,0.701 0,0 m 13.758,-136.017 c -3.073,0 -5.665,0.704 -7.757,2.113 -4.508,3.036 -6.794,9.406 -6.794,18.932 V 0.72 l 0.358,0.034 C 7.181,1.492 10.99,1.866 18.607,2.616 l 0.434,0.043 v -110.456 c 0,-2.906 0.653,-4.824 1.939,-5.701 1.259,-0.858 3.209,-0.778 5.799,0.236 5.445,2.134 8.092,5.999 8.092,11.817 V 4.221 l 1.21,0.12 C 43.14,5.038 46.943,5.414 54.27,6.13 l 0.435,0.043 V -94.203 c 0,-18.236 -9.297,-31.254 -27.633,-38.693 -5.128,-2.08 -9.576,-3.121 -13.314,-3.121"
             style="fill:#000000;fill-opacity:1;fill-rule:nonzero;stroke:none;stroke-width:9.09364"
             id="path5921" />
        </g>
        <g
           id="g5927"
           transform="translate(635.597,833.375)"
           style="stroke-width:9.09364">
          <path
             d="m 0,0 v 10.379 c 0,4.484 -2.759,6.262 -8.275,5.47 -0.054,-0.008 -0.081,-0.012 -0.135,-0.02 -5.474,-0.82 -8.209,-3.591 -8.209,-8.413 v -70.484 c 0,-5.595 2.756,-7.464 8.275,-5.581 5.564,1.898 8.344,5.63 8.344,11.144 v 12.369 c -3.095,-0.959 -4.642,-1.447 -7.737,-2.44 v 16.721 c 10.712,3.142 16.069,4.645 26.782,7.41 v -28.247 c 0,-16.875 -9.144,-28.772 -27.389,-35.122 -18.187,-6.329 -27.32,-0.771 -27.32,16.947 v 73.73 c 0,16.077 9.107,24.53 27.32,26.036 18.258,1.508 27.389,-3.335 27.389,-16.333 V 3.865 C 11.427,2.385 7.618,1.607 0,0"
             style="fill:#ffffff;fill-opacity:1;fill-rule:nonzero;stroke:none;stroke-width:9.09364"
             id="path5925" />
        </g>
        <g
           id="g5931"
           transform="translate(633.287,863.144)"
           style="stroke-width:9.09364">
          <path
             d="m 0,0 c -1.868,0 -3.866,-0.088 -6.002,-0.265 -18.139,-1.499 -26.956,-9.886 -26.956,-25.64 v -73.73 c 0,-8.265 2.038,-13.904 6.058,-16.761 4.405,-3.131 11.381,-3.068 20.736,0.188 17.997,6.263 27.122,17.954 27.122,34.748 v 27.735 C 10.576,-56.408 5.226,-57.913 -5.032,-60.92 v -15.881 c 2.762,0.885 4.304,1.371 7.224,2.275 l 0.514,0.16 v -12.908 c 0,-5.693 -2.898,-9.569 -8.612,-11.519 -2.927,-0.998 -5.162,-0.966 -6.645,0.094 -1.43,1.023 -2.155,2.996 -2.155,5.863 v 70.484 c 0,4.992 2.876,7.955 8.547,8.805 l 0.137,0.02 c 3.235,0.465 5.513,0.075 6.97,-1.188 1.167,-1.011 1.758,-2.584 1.758,-4.674 v -9.891 c 7.001,1.477 10.79,2.253 18.252,3.703 v 9.374 c 0,5.107 -1.401,8.879 -4.281,11.531 C 13.279,-1.543 7.793,0 0,0 m -18.594,-119.487 c -3.542,0 -6.472,0.815 -8.765,2.445 -4.241,3.014 -6.392,8.871 -6.392,17.407 v 73.73 c 0,16.245 9.056,24.891 27.684,26.43 11.282,0.932 18.898,-0.577 23.281,-4.613 3.052,-2.811 4.536,-6.774 4.536,-12.115 V -26.23 l -0.321,-0.062 C 13.59,-27.815 9.8,-28.593 2.392,-30.156 l -0.479,-0.101 v 10.868 c 0,1.85 -0.499,3.221 -1.484,4.075 -1.256,1.089 -3.389,1.426 -6.338,1.003 l -0.192,0.372 0.059,-0.392 c -5.296,-0.794 -7.871,-3.418 -7.871,-8.021 v -70.484 c 0,-2.597 0.613,-4.353 1.823,-5.218 1.262,-0.903 3.257,-0.9 5.928,0.011 5.358,1.829 8.075,5.452 8.075,10.769 v 11.832 c -2.761,-0.857 -4.303,-1.344 -7.22,-2.279 l -0.517,-0.166 v 17.56 l 0.284,0.084 c 10.617,3.114 15.978,4.622 26.795,7.414 l 0.495,0.127 V -81.46 c 0,-17.167 -9.304,-29.11 -27.654,-35.497 -4.847,-1.686 -9.085,-2.53 -12.69,-2.53"
             style="fill:#000000;fill-opacity:1;fill-rule:nonzero;stroke:none;stroke-width:9.09364"
             id="path5929" />
        </g>
        <g
           id="g5935"
           transform="translate(724.825,789.905)"
           style="stroke-width:9.09364">
          <path
             d="m 0,0 c 0,-14.825 -9.145,-22.829 -27.386,-25.44 -18.19,-2.604 -27.319,4.1 -27.319,20.572 V 74.83 c 7.616,0.092 11.425,0.124 19.041,0.151 V -2.175 c 0,-5.078 2.76,-7.309 8.278,-6.72 5.561,0.594 8.344,3.322 8.344,8.241 V 74.969 C -11.425,74.931 -7.617,74.893 0,74.769 Z"
             style="fill:#ffffff;fill-opacity:1;fill-rule:nonzero;stroke:none;stroke-width:9.09364"
             id="path5933" />
        </g>
        <g
           id="g5939"
           transform="translate(670.516,864.343)"
           style="stroke-width:9.09364">
          <path
             d="m 0,0 v -79.306 c 0,-7.551 1.978,-13.095 5.88,-16.478 4.405,-3.82 11.469,-5.065 20.987,-3.702 18.452,2.641 27.045,10.6 27.045,25.048 V -0.059 C 46.805,0.055 43.069,0.094 35.663,0.133 v -75.226 c 0,-5.112 -2.926,-8.017 -8.698,-8.634 -2.991,-0.319 -5.244,0.183 -6.7,1.492 -1.338,1.202 -2.016,3.094 -2.016,5.622 V 0.145 C 11.183,0.119 7.447,0.089 0,0 m 19.909,-100.812 c -6.272,0 -11.149,1.481 -14.548,4.429 -4.083,3.54 -6.154,9.286 -6.154,17.077 V 0.783 l 0.392,0.005 c 7.854,0.095 11.592,0.124 19.045,0.151 l 0.397,0.001 v -77.553 c 0,-2.294 0.59,-3.987 1.754,-5.033 1.282,-1.152 3.328,-1.587 6.086,-1.293 5.376,0.574 7.99,3.141 7.99,7.846 V 0.929 L 35.269,0.927 C 43.081,0.888 46.82,0.848 54.315,0.727 l 0.39,-0.006 v -75.159 c 0,-14.713 -9.069,-23.163 -27.726,-25.833 -2.523,-0.361 -4.882,-0.541 -7.07,-0.541"
             style="fill:#000000;fill-opacity:1;fill-rule:nonzero;stroke:none;stroke-width:9.09364"
             id="path5937" />
        </g>
        <g
           id="g5943"
           transform="translate(741.446,867.491)"
           style="stroke-width:9.09364">
          <path
             d="m 0,0 c 5.76,4.006 8.64,5.989 14.4,10.087 h 17.766 c 5.868,-4.356 8.802,-6.682 14.67,-11.711 -5.761,0.283 -8.642,0.41 -14.403,0.64 C 28.773,0.821 26.944,1.687 23.284,3.36 19.65,1.848 17.833,1.109 14.199,-0.357 8.519,-0.192 5.68,-0.121 0,0 M -1.279,-3.141 C 18.477,-3.658 28.356,-4.068 48.112,-5.34 v -13.451 c -12.139,1.379 -18.208,1.914 -30.346,2.742 v -39.073 c 10.442,-1.288 15.664,-2.145 26.106,-4.384 v -14.725 c -10.442,2.519 -15.664,3.464 -26.106,4.846 v -15.882 c 12.138,-1.656 18.207,-2.886 30.346,-6.367 v -15.499 c -19.756,6.052 -29.635,7.497 -49.391,8.293 z"
             style="fill:#ffffff;fill-opacity:1;fill-rule:nonzero;stroke:none;stroke-width:9.09364"
             id="path5941" />
        </g>
        <g
           id="g5947"
           transform="translate(773.98,866.899)"
           style="stroke-width:9.09364">
          <path
             d="M 0,0 C 5.386,-0.215 8.209,-0.339 13.164,-0.58 8.024,3.808 5.146,6.09 -0.498,10.282 H -18.007 C -22.795,6.876 -25.575,4.944 -29.769,2.03 l -1.537,-1.068 c 4.873,-0.106 7.693,-0.178 12.901,-0.329 3.581,1.445 5.397,2.184 9.004,3.684 l 0.16,0.066 0.157,-0.072 C -5.352,2.606 -3.554,1.752 0,0 m 15.44,-1.485 -1.157,0.057 c -5.726,0.281 -8.552,0.406 -14.399,0.639 l -0.16,0.041 c -3.544,1.749 -5.337,2.601 -8.98,4.267 -3.53,-1.467 -5.348,-2.207 -8.93,-3.652 l -0.077,-0.031 -0.082,0.002 c -5.679,0.165 -8.518,0.236 -14.196,0.357 l -1.218,0.026 3.538,2.46 c 4.221,2.934 7.01,4.872 11.858,8.32 l 0.103,0.074 h 18.024 l 0.105,-0.079 C 5.917,6.506 8.801,4.205 14.561,-0.732 Z m -48.856,-96.383 c 18.906,-0.773 28.763,-2.091 48.598,-8.138 v 14.665 c -11.693,3.346 -17.641,4.586 -30.003,6.273 l -0.343,0.047 v 16.68 l 0.449,-0.059 c 10.553,-1.397 15.691,-2.342 25.658,-4.736 v 13.901 c -10.052,2.15 -15.175,3.005 -25.759,4.311 l -0.348,0.043 v 39.848 l 0.423,-0.029 c 12.339,-0.842 18.304,-1.377 29.923,-2.694 V -5.12 c -19.87,1.277 -29.707,1.667 -48.598,2.164 z m 49.391,-9.209 -0.512,0.157 c -20.229,6.196 -30.049,7.501 -49.291,8.275 l -0.38,0.016 v 96.486 l 0.406,-0.01 c 19.287,-0.505 29.131,-0.894 49.406,-2.199 l 0.371,-0.024 v -14.268 l -0.441,0.051 c -11.762,1.336 -17.712,1.877 -29.905,2.712 v -38.3 c 10.487,-1.298 15.617,-2.164 25.793,-4.346 l 0.314,-0.067 v -15.548 l -0.489,0.118 c -10.114,2.439 -15.23,3.396 -25.618,4.778 v -15.083 c 12.276,-1.684 18.241,-2.944 30.059,-6.332 l 0.287,-0.082 z"
             style="fill:#000000;fill-opacity:1;fill-rule:nonzero;stroke:none;stroke-width:9.09364"
             id="path5945" />
        </g>
        <g
           id="g5951"
           transform="translate(839.49,822.611)"
           style="stroke-width:9.09364">
          <path
             d="m 0,0 v 12.009 c 0,5.395 -2.783,8.641 -8.344,9.629 -5.518,0.981 -8.278,-1.061 -8.278,-6.041 v -2.025 c 0,-5.325 5.945,-12.537 17.832,-24.453 11.867,-11.895 17.832,-25.557 17.832,-37.714 v -25.032 c 0,-18.483 -9.107,-19.586 -27.32,-8.901 -18.258,10.712 -27.386,21.424 -27.386,36.804 v 14.662 c 7.617,-2.42 11.425,-3.792 19.042,-6.907 v -15.465 c 0,-5.182 2.76,-9.067 8.278,-12.054 0.054,-0.029 0.081,-0.043 0.135,-0.072 C -2.738,-68.485 0,-67.394 0,-61.87 v 22.716 c 0,5.402 -5.946,15.062 -17.832,26.023 C -29.7,-2.187 -35.664,6.701 -35.664,15.862 v 3.117 c 0,14.274 9.125,20.61 27.32,18.876 C 9.897,36.116 19.042,25.604 19.042,7.122 V -6.134 C 11.425,-3.459 7.617,-2.237 0,0"
             style="fill:#ffffff;fill-opacity:1;fill-rule:nonzero;stroke:none;stroke-width:9.09364"
             id="path5949" />
        </g>
        <g
           id="g5955"
           transform="translate(804.223,791.007)"
           style="stroke-width:9.09364">
          <path
             d="m 0,0 v -14.119 c 0,-14.377 8.131,-25.282 27.19,-36.463 10.75,-6.307 17.683,-8.142 21.821,-5.773 3.298,1.889 4.901,6.577 4.901,14.332 v 25.032 c 0,12.504 -6.457,26.149 -17.715,37.435 C 24.83,31.838 18.249,39.538 18.249,45.177 v 2.024 c 0,2.468 0.669,4.28 1.99,5.386 1.467,1.229 3.74,1.581 6.753,1.046 5.754,-1.023 8.672,-4.394 8.672,-10.019 V 31.901 c 7.372,-2.168 11.113,-3.371 18.248,-5.872 v 12.697 c 0,18.421 -9.093,28.629 -27.027,30.338 C 16.849,70.021 9.534,68.483 5.145,64.491 1.731,61.388 0,56.708 0,50.583 V 47.466 C 0,38.792 5.295,30.208 17.704,18.764 28.782,8.549 35.664,-1.534 35.664,-7.549 v -22.717 c 0,-2.714 -0.637,-4.414 -1.947,-5.199 -1.483,-0.89 -3.724,-0.51 -6.845,1.16 l -0.138,0.073 c -5.71,3.09 -8.485,7.147 -8.485,12.403 V -6.631 C 11.038,-3.686 7.308,-2.329 0,0 m 44.899,-58.132 c -4.342,-0.001 -10.251,2.256 -18.11,6.866 -19.333,11.343 -27.582,22.452 -27.582,37.147 V 1.084 L -0.277,0.92 c 7.763,-2.466 11.506,-3.823 19.072,-6.918 l 0.246,-0.101 v -15.73 c 0,-4.938 2.64,-8.767 8.071,-11.706 l -0.054,-0.421 0.187,0.35 c 2.817,-1.506 4.856,-1.903 6.065,-1.179 1.036,0.621 1.561,2.141 1.561,4.519 v 22.717 c 0,4.546 -4.651,13.694 -17.705,25.731 C 4.578,29.79 -0.793,38.548 -0.793,47.466 v 3.117 c 0,6.358 1.819,11.235 5.404,14.495 4.563,4.148 12.081,5.754 22.35,4.775 C 45.37,68.098 54.705,57.626 54.705,38.726 V 24.911 l -0.527,0.185 c -7.561,2.656 -11.294,3.858 -19.022,6.128 l -0.285,0.084 v 12.306 c 0,5.185 -2.698,8.293 -8.017,9.238 -2.773,0.493 -4.828,0.2 -6.106,-0.872 -1.132,-0.949 -1.707,-2.557 -1.707,-4.779 v -2.024 c 0,-5.365 6.496,-12.926 17.717,-24.173 C 48.163,9.57 54.705,-4.279 54.705,-16.991 v -25.032 c 0,-8.064 -1.734,-12.977 -5.3,-15.02 -1.265,-0.724 -2.759,-1.089 -4.506,-1.089"
             style="fill:#000000;fill-opacity:1;fill-rule:nonzero;stroke:none;stroke-width:9.09364"
             id="path5953" />
        </g>
        <g
           id="g5959"
           transform="translate(283.73,660.537)"
           style="stroke-width:9.09364">
          <path
             d="m 0,0 c 0,-20.353 0,-30.449 0,-50.479 1.75,-0.507 2.625,-0.755 4.375,-1.24 2.645,-0.734 4.465,-1.055 5.449,-1.004 3.456,0.291 5.182,2.221 5.182,5.81 v 32.001 c 0,5.222 -2.759,8.979 -8.277,11.597 C 4.037,-2.038 2.691,-1.375 0,0 M -19.042,29.528 C -7.953,21.734 -2.409,18.38 8.68,12.594 25.593,3.728 34.051,-6.617 34.051,-21.748 c 0,-12.186 0,-18.176 0,-29.952 0,-10.788 -6.08,-16.532 -18.237,-17.644 -2.915,-0.263 -7.155,0.085 -12.718,1.19 -1.238,0.245 -1.858,0.37 -3.096,0.624 0,-14.162 0,-21.202 0,-35.201 -7.617,0.086 -11.425,0.132 -19.042,0.233 0.001,44.009 0.001,88.017 0,132.026"
             style="fill:#ffffff;fill-opacity:1;fill-rule:nonzero;stroke:none;stroke-width:9.09364"
             id="path5957" />
        </g>
        <g
           id="g5963"
           transform="translate(284.126,610.356)"
           style="stroke-width:9.09364">
          <path
             d="m 0,0 c 1.563,-0.452 2.434,-0.699 4.084,-1.157 3.176,-0.881 4.648,-1.024 5.323,-0.99 3.23,0.273 4.806,2.045 4.806,5.415 v 32.001 c 0,4.992 -2.633,8.669 -8.051,11.239 C 3.646,47.701 2.326,48.348 0,49.534 Z m 9.222,-2.943 c -1.108,0 -2.901,0.343 -5.35,1.023 -1.752,0.486 -2.627,0.734 -4.379,1.242 l -0.286,0.083 v 51.423 l 0.576,-0.294 c 2.693,-1.376 4.011,-2.026 6.718,-3.31 5.723,-2.715 8.505,-6.625 8.505,-11.955 V 3.268 c 0,-3.807 -1.866,-5.895 -5.545,-6.205 C 9.385,-2.941 9.305,-2.943 9.222,-2.943 m -28.265,-48.983 c 7.226,-0.095 11.028,-0.142 18.249,-0.223 l 0.001,35.285 0.476,-0.097 c 1.237,-0.253 1.856,-0.378 3.094,-0.624 5.255,-1.043 9.612,-1.453 12.605,-1.184 12.028,1.101 17.876,6.743 17.876,17.25 v 29.952 c 0,14.387 -7.759,24.87 -25.159,33.991 -11.123,5.804 -16.579,9.118 -27.141,16.522 z m 19.042,-1.025 -0.401,0.005 c -7.616,0.085 -11.425,0.132 -19.042,0.233 l -0.391,0.005 V 80.471 l 0.625,-0.438 C -8.269,72.343 -2.837,69.025 8.466,63.126 26.161,53.851 34.051,43.151 34.051,28.433 V -1.519 c 0,-10.993 -6.083,-16.894 -18.598,-18.039 -3.111,-0.28 -7.427,0.123 -12.831,1.196 -1.07,0.212 -1.678,0.334 -2.622,0.527 z"
             style="fill:#000000;fill-opacity:1;fill-rule:nonzero;stroke:none;stroke-width:9.09364"
             id="path5961" />
        </g>
        <g
           id="g5967"
           transform="translate(358.491,627.549)"
           style="stroke-width:9.09364">
          <path
             d="m 0,0 c -5.383,-30.047 -8.074,-43.577 -13.457,-70.253 -7.672,0.044 -11.508,0.068 -19.18,0.124 6.763,32.021 13.279,64.08 19.648,96.182 10.444,-2.346 15.666,-3.166 26.11,-4.235 5.91,-30.889 11.717,-61.782 19.582,-92.251 -7.698,0.018 -11.547,0.029 -19.246,0.057 C 8.074,-45.971 5.383,-31.632 0,0"
             style="fill:#ffffff;fill-opacity:1;fill-rule:nonzero;stroke:none;stroke-width:9.09364"
             id="path5965" />
        </g>
        <g
           id="g5971"
           transform="translate(372.267,557.568)"
           style="stroke-width:9.09364">
          <path
             d="M 0,0 C 7.317,-0.026 11.16,-0.038 18.415,-0.054 10.974,28.86 5.282,58.633 -0.224,87.433 l -0.765,4.002 c -10.4,1.07 -15.537,1.901 -25.466,4.123 -6.878,-34.66 -13.248,-65.846 -19.47,-95.314 7.244,-0.052 11.074,-0.076 18.368,-0.117 5.202,25.78 7.964,39.631 13.391,69.924 l 0.4,2.233 0.381,-2.237 C -8.175,39.432 -5.499,24.95 0,0 m 19.439,-0.849 -0.513,0.001 C 11.228,-0.83 7.379,-0.819 -0.32,-0.791 l -0.318,0.001 -0.068,0.309 C -6.118,24.057 -8.8,38.443 -13.786,67.68 -18.975,38.793 -21.73,24.997 -26.845,-0.35 l -0.064,-0.32 -0.326,0.002 c -7.673,0.043 -11.509,0.068 -19.181,0.123 l -0.485,0.004 0.1,0.474 c 6.277,29.717 12.704,61.176 19.648,96.178 l 0.079,0.399 0.396,-0.09 c 10.248,-2.302 15.363,-3.132 26.063,-4.227 l 0.294,-0.03 0.876,-4.582 C 6.09,58.63 11.813,28.693 19.311,-0.353 Z"
             style="fill:#000000;fill-opacity:1;fill-rule:nonzero;stroke:none;stroke-width:9.09364"
             id="path5969" />
        </g>
        <g
           id="g5975"
           transform="translate(402.97,648.193)"
           style="stroke-width:9.09364">
          <path
             d="m 0,0 c 7.617,0.181 11.425,0.409 19.042,1.088 0,-30.736 0,-61.472 0,-92.208 C 11.425,-91.115 7.617,-91.111 0,-91.099 0,-60.733 0,-30.366 0,0"
             style="fill:#ffffff;fill-opacity:1;fill-rule:nonzero;stroke:none;stroke-width:9.09364"
             id="path5973" />
        </g>
        <g
           id="g5979"
           transform="translate(403.366,557.489)"
           style="stroke-width:9.09364">
          <path
             d="M 0,0 C 7.224,-0.011 11.026,-0.015 18.249,-0.019 V 91.359 C 10.85,90.703 7.109,90.49 0,90.317 Z m 19.042,-0.812 h -0.396 c -7.618,0.004 -11.426,0.008 -19.043,0.02 l -0.396,0.001 v 91.882 l 0.387,0.009 c 7.481,0.177 11.213,0.391 19.017,1.087 l 0.431,0.038 z"
             style="fill:#000000;fill-opacity:1;fill-rule:nonzero;stroke:none;stroke-width:9.09364"
             id="path5977" />
        </g>
        <g
           id="g5983"
           transform="translate(493.071,647.359)"
           style="stroke-width:9.09364">
          <path
             d="m 0,0 v -76.776 c 3.338,0.285 5.006,0.429 8.344,0.72 5.518,0.481 8.275,3.056 8.275,7.826 V -2.809 C 16.619,2.664 13.862,4.514 8.344,2.7 5.006,1.602 3.338,1.062 0,0 m -19.045,11.23 c 11.736,3.526 17.604,5.482 29.341,9.587 16.909,5.871 25.367,0.12 25.367,-17.287 v -69.372 c 0,-16.069 -8.86,-23.87 -26.58,-24.071 -11.251,-0.108 -16.877,-0.16 -28.128,-0.259 z"
             style="fill:#ffffff;fill-opacity:1;fill-rule:nonzero;stroke:none;stroke-width:9.09364"
             id="path5981" />
        </g>
        <g
           id="g5987"
           transform="translate(493.468,647.069)"
           style="stroke-width:9.09364">
          <path
             d="m 0,0 v -76.055 c 3.057,0.261 4.723,0.405 7.913,0.683 5.325,0.465 7.913,2.896 7.913,7.432 v 65.42 c 0,2.516 -0.602,4.228 -1.791,5.088 -1.263,0.915 -3.27,0.93 -5.963,0.045 C 4.826,1.546 3.158,1.005 0,0 M -0.793,-76.918 V 0.58 l 0.276,0.087 c 3.337,1.062 5.005,1.602 8.341,2.699 2.95,0.969 5.195,0.916 6.676,-0.156 1.406,-1.018 2.119,-2.945 2.119,-5.73 v -65.42 c 0,-4.956 -2.906,-7.721 -8.637,-8.221 -3.338,-0.291 -5.006,-0.436 -8.345,-0.72 z M -19.045,11.225 V -89.482 c 10.986,0.096 16.611,0.149 27.727,0.255 17.623,0.2 26.189,7.944 26.189,23.675 V 3.82 c 0,8.4 -2.017,14.094 -5.994,16.923 -4.096,2.913 -10.438,2.91 -18.848,-0.011 C -1.628,16.655 -7.517,14.691 -19.045,11.225 M -19.837,-90.282 V 11.815 l 0.282,0.085 c 11.7,3.514 17.583,5.475 29.323,9.581 8.668,3.009 15.251,2.978 19.568,-0.093 4.199,-2.986 6.328,-8.897 6.328,-17.568 v -69.372 c 0,-16.258 -8.823,-24.262 -26.973,-24.468 -11.252,-0.107 -16.878,-0.159 -28.128,-0.258 z"
             style="fill:#000000;fill-opacity:1;fill-rule:nonzero;stroke:none;stroke-width:9.09364"
             id="path5985" />
        </g>
        <g
           id="g5991"
           transform="translate(544.885,683.644)"
           style="stroke-width:9.09364">
          <path
             d="M 0,0 C 9.421,3.634 14.131,5.482 23.552,9.141 V -10.41 c -2.88,-10.948 -4.32,-16.392 -7.2,-27.094 -4.953,-1.571 -7.43,-2.357 -12.383,-3.922 1.562,9.043 2.342,13.626 3.903,22.861 C 4.723,-19.696 3.149,-20.261 0,-21.386 Z"
             style="fill:#ffffff;fill-opacity:1;fill-rule:nonzero;stroke:none;stroke-width:9.09364"
             id="path5989" />
        </g>
        <g
           id="g5995"
           transform="translate(553.261,665.681)"
           style="stroke-width:9.09364">
          <path
             d="m 0,0 -0.113,-0.668 c -1.524,-9.015 -2.304,-13.597 -3.793,-22.221 4.14,1.309 6.56,2.076 10.537,3.338 l 1.018,0.323 c 2.913,10.827 4.349,16.262 7.13,26.833 v 18.92 L 7.421,23.664 C 2.472,21.737 -1.712,20.11 -7.98,17.691 V -2.86 c 2.806,1.003 4.375,1.566 7.342,2.631 z m -4.908,-24.036 0.11,0.641 c 1.524,8.821 2.304,13.398 3.791,22.191 -2.74,-0.983 -4.306,-1.545 -7.236,-2.591 l -0.529,-0.19 v 22.22 l 0.254,0.098 c 6.408,2.472 10.637,4.118 15.651,6.069 l 8.438,3.281 -0.012,-20.23 C 12.751,-3.22 11.314,-8.659 8.358,-19.643 L 8.302,-19.853 6.87,-20.307 C 2.699,-21.63 0.24,-22.41 -4.288,-23.84 Z"
             style="fill:#000000;fill-opacity:1;fill-rule:nonzero;stroke:none;stroke-width:9.09364"
             id="path5993" />
        </g>
        <g
           id="g5999"
           transform="translate(610.09,713.812)"
           style="stroke-width:9.09364">
          <path
             d="m 0,0 c -4.226,-1.545 -6.339,-2.332 -10.566,-3.923 3.822,8.466 5.733,12.695 9.554,21.047 5.976,2.238 8.964,3.331 14.941,5.437 C 8.357,13.662 5.571,9.116 0,0 M -24.158,-14.345 C -4.402,-6.797 5.477,-3.067 25.233,3.378 v -20.341 c -12.14,-3.773 -18.21,-5.813 -30.349,-10.014 v -60.828 c 10.444,2.364 15.666,3.522 26.11,5.727 v -23.055 c -10.444,-1.627 -15.666,-2.478 -26.11,-4.213 v -23.637 c 12.139,1.097 18.209,1.635 30.349,2.654 v -24.716 c -19.756,-0.182 -29.635,-0.281 -49.391,-0.481 z"
             style="fill:#ffffff;fill-opacity:1;fill-rule:nonzero;stroke:none;stroke-width:9.09364"
             id="path5997" />
        </g>
        <g
           id="g6003"
           transform="translate(609.371,730.623)"
           style="stroke-width:9.09364">
          <path
             d="m 0,0 c -3.643,-7.963 -5.55,-12.18 -9.092,-20.026 3.613,1.359 5.71,2.138 9.546,3.54 C 5.633,-8.011 8.473,-3.374 13.711,5 8.353,3.107 5.397,2.021 0,0 m -10.6,-21.441 0.393,0.871 c 3.822,8.467 5.732,12.696 9.555,21.049 l 0.068,0.148 0.153,0.058 c 5.851,2.191 8.832,3.284 14.948,5.44 l 1.069,0.376 -0.602,-0.96 C 9.332,-3.487 6.477,-8.15 1.058,-17.017 l -0.072,-0.118 -0.13,-0.047 c -4.225,-1.545 -6.337,-2.331 -10.562,-3.922 z m -12.442,-9.987 v -140.508 c 19.36,0.196 29.236,0.295 48.598,0.473 v 23.893 c -11.601,-0.975 -17.719,-1.515 -29.917,-2.618 l -0.432,-0.039 v 24.407 l 0.331,0.055 c 10.446,1.735 15.701,2.591 25.779,4.161 v 22.227 c -9.981,-2.109 -15.234,-3.273 -25.626,-5.625 l -0.484,-0.11 v 61.607 l 0.267,0.093 c 12.274,4.247 18.397,6.296 30.082,9.931 v 19.502 C 6.281,-20.275 -3.397,-23.922 -23.042,-31.428 m -0.793,-141.308 v 141.854 l 0.255,0.097 c 20.007,7.644 29.684,11.295 49.41,17.729 l 0.519,0.169 V -34.065 L 26.07,-34.152 C 14.298,-37.81 8.184,-39.854 -4,-44.069 v -60.051 c 10.24,2.318 15.491,3.478 25.631,5.62 l 0.479,0.101 v -23.884 l -0.336,-0.052 C 11.588,-123.921 6.338,-124.775 -4,-126.492 v -22.867 c 12.062,1.089 18.175,1.628 29.92,2.614 l 0.429,0.037 v -25.54 l -0.393,-0.004 c -19.756,-0.182 -29.634,-0.281 -49.391,-0.48 z"
             style="fill:#000000;fill-opacity:1;fill-rule:nonzero;stroke:none;stroke-width:9.09364"
             id="path6001" />
        </g>
        <g
           id="g6007"
           transform="translate(683.772,682.968)"
           style="stroke-width:9.09364">
          <path
             d="m 0,0 v 16.206 c 0,7.033 -2.759,10.201 -8.275,9.535 -0.054,-0.007 -0.081,-0.011 -0.135,-0.018 -5.473,-0.714 -8.209,-4.494 -8.209,-11.401 v -102.2 c 0,-8.197 2.757,-12.367 8.275,-12.323 5.564,0.044 8.344,4.282 8.344,12.545 v 18.596 c -3.095,-0.052 -4.642,-0.084 -7.737,-0.156 v 24.901 c 10.712,0.45 16.069,0.597 26.782,0.668 v -43.954 c 0,-25.699 -9.163,-39.448 -27.389,-39.48 -18.18,-0.033 -27.32,13.224 -27.32,37.812 v 99.285 c 0,20.922 9.107,33.786 27.32,36.866 C 9.914,49.969 19.045,40.04 19.045,17.587 V 1.039 C 11.427,0.783 7.618,0.568 0,0"
             style="fill:#ffffff;fill-opacity:1;fill-rule:nonzero;stroke:none;stroke-width:9.09364"
             id="path6005" />
        </g>
        <g
           id="g6011"
           transform="translate(681.515,729.998)"
           style="stroke-width:9.09364">
          <path
             d="m 0,0 c -1.884,0 -3.892,-0.18 -6.021,-0.54 -17.657,-2.985 -26.99,-15.598 -26.99,-36.475 v -99.284 c 0,-14.343 3.116,-24.726 9.262,-30.861 4.358,-4.35 10.278,-6.555 17.596,-6.555 h 0.065 c 17.911,0.032 26.993,13.181 26.993,39.084 v 43.554 C 10.259,-91.15 4.936,-91.306 -5.085,-91.726 v -24.115 c 2.832,0.066 4.377,0.097 7.335,0.147 l 0.403,0.007 v -19 c 0,-8.541 -2.94,-12.895 -8.737,-12.941 -2.284,-0.022 -4.171,0.676 -5.569,2.064 -2.06,2.044 -3.105,5.629 -3.105,10.655 v 102.2 c 0,7.085 2.878,11.054 8.554,11.794 l 0.139,0.019 c 2.545,0.307 4.566,-0.185 6.007,-1.463 1.799,-1.595 2.711,-4.443 2.711,-8.465 v -15.78 c 7.423,0.551 11.162,0.755 18.252,0.996 v 16.164 c 0,12.219 -2.75,20.739 -8.175,25.323 C 9.485,-1.378 5.218,0 0,0 m -6.153,-174.508 c -7.536,0 -13.644,2.283 -18.156,6.787 -6.3,6.289 -9.494,16.861 -9.494,31.422 v 99.284 c 0,21.315 9.561,34.198 27.65,37.257 8.266,1.398 14.791,0.133 19.395,-3.758 5.611,-4.741 8.456,-13.465 8.456,-25.928 v -16.931 l -0.383,-0.013 c -7.464,-0.25 -11.199,-0.454 -19.029,-1.038 L 1.86,-47.458 v 16.634 c 0,3.786 -0.822,6.434 -2.444,7.872 -1.264,1.121 -3.078,1.548 -5.386,1.269 l -0.183,0.376 0.051,-0.393 c -5.291,-0.691 -7.864,-4.292 -7.864,-11.009 v -102.2 c 0,-4.807 0.966,-8.203 2.871,-10.093 1.243,-1.233 2.901,-1.851 5.005,-1.833 5.275,0.042 7.95,4.129 7.95,12.148 v 18.194 c -2.831,-0.049 -4.375,-0.081 -7.331,-0.15 l -0.406,-0.01 v 25.687 l 0.38,0.016 c 10.404,0.438 15.735,0.595 26.796,0.669 l 0.399,0.002 v -44.352 c 0,-26.055 -9.608,-39.844 -27.785,-39.877 z"
             style="fill:#000000;fill-opacity:1;fill-rule:nonzero;stroke:none;stroke-width:9.09364"
             id="path6009" />
        </g>
        <g
           id="g6015"
           transform="translate(773,593.203)"
           style="stroke-width:9.09364">
          <path
             d="m 0,0 c 0,-24.512 -9.159,-37.284 -27.386,-37.316 -18.181,-0.032 -27.319,13.618 -27.319,39.346 v 136.651 c 7.616,0.234 11.425,0.226 19.041,-0.095 V 1.618 c 0,-8.22 2.76,-12.448 8.278,-12.591 5.561,-0.144 8.344,3.874 8.344,11.983 v 136.297 c 7.617,-0.859 11.425,-1.444 19.042,-2.978 z"
             style="fill:#ffffff;fill-opacity:1;fill-rule:nonzero;stroke:none;stroke-width:9.09364"
             id="path6013" />
        </g>
        <g
           id="g6019"
           transform="translate(718.691,731.499)"
           style="stroke-width:9.09364">
          <path
             d="m 0,0 v -136.266 c 0,-15.213 3.211,-26.132 9.544,-32.453 4.331,-4.324 10.137,-6.484 17.379,-6.497 17.909,0.031 26.99,12.453 26.99,36.92 V -4.292 c -7.166,1.439 -10.895,2.024 -18.249,2.859 v -135.854 c 0,-4.912 -1.032,-8.408 -3.068,-10.391 -1.415,-1.38 -3.333,-2.05 -5.683,-1.988 -5.749,0.149 -8.664,4.519 -8.664,12.987 V -0.091 C 11.129,0.205 7.397,0.224 0,0 m 26.861,-176.009 c -7.39,0 -13.404,2.264 -17.877,6.729 -6.487,6.476 -9.777,17.583 -9.777,33.014 V 0.769 l 0.384,0.012 c 7.81,0.24 11.553,0.222 19.071,-0.096 l 0.38,-0.016 v -137.348 c 0,-8.068 2.581,-12.057 7.892,-12.194 2.137,-0.056 3.852,0.538 5.109,1.762 1.876,1.829 2.828,5.134 2.828,9.824 V -0.546 l 0.441,-0.05 c 7.786,-0.877 11.529,-1.463 19.076,-2.982 l 0.318,-0.065 v -134.653 c 0,-24.992 -9.348,-37.681 -27.782,-37.713 z"
             style="fill:#000000;fill-opacity:1;fill-rule:nonzero;stroke:none;stroke-width:9.09364"
             id="path6017" />
        </g>
        <g
           id="g6023"
           transform="translate(816.404,679.151)"
           style="stroke-width:9.09364">
          <path
             d="m 0,0 c -4.788,-40.143 -9.261,-80.324 -13.457,-120.534 -7.672,0.059 -11.508,0.086 -19.18,0.132 6.118,53.485 12.463,106.94 19.648,160.294 10.444,-3.764 15.666,-6.013 26.11,-11.379 6.265,-49.867 12.59,-99.733 19.582,-149.505 -7.698,0.095 -11.547,0.138 -19.246,0.217 C 8.865,-80.529 4.419,-40.266 0,0"
             style="fill:#ffffff;fill-opacity:1;fill-rule:nonzero;stroke:none;stroke-width:9.09364"
             id="path6021" />
        </g>
        <g
           id="g6027"
           transform="translate(830.215,558.769)"
           style="stroke-width:9.09364">
          <path
             d="M 0,0 C 7.314,-0.075 11.156,-0.118 18.435,-0.207 11.493,49.239 5.253,98.415 -1.057,148.638 c -10.024,5.146 -15.138,7.382 -25.416,11.097 -7.632,-56.714 -14.153,-112.35 -19.531,-159.361 7.262,-0.044 11.09,-0.07 18.379,-0.126 4.255,40.762 8.77,81.196 13.42,120.182 l 0.41,3.436 0.377,-3.44 C -9.189,81.895 -4.637,40.642 0,0 m 19.349,-1.011 -0.462,0.006 c -7.698,0.094 -11.548,0.137 -19.245,0.216 l -0.35,0.004 -0.04,0.347 C -5.26,39.11 -9.693,79.245 -13.827,116.896 -18.346,78.864 -22.733,39.49 -26.874,-0.192 l -0.038,-0.358 -0.359,0.002 c -7.672,0.06 -11.508,0.086 -19.18,0.133 l -0.441,0.002 0.05,0.439 c 5.404,47.243 11.964,103.233 19.649,160.301 l 0.066,0.486 0.461,-0.166 c 10.691,-3.853 15.825,-6.09 26.157,-11.399 l 0.186,-0.096 0.026,-0.207 C 6.041,98.499 12.307,49.107 19.285,-0.554 Z"
             style="fill:#000000;fill-opacity:1;fill-rule:nonzero;stroke:none;stroke-width:9.09364"
             id="path6025" />
        </g>
      </g>
    </g>
  </g>
</svg>
