<?xml version="1.0" encoding="UTF-8" standalone="no"?>
<!-- Created with Inkscape (http://www.inkscape.org/) -->

<svg
   version="1.1"
   id="svg132"
   width="680.05908"
   height="597.46838"
   viewBox="0 0 680.05908 597.46838"
   xmlns="http://www.w3.org/2000/svg"
   xmlns:svg="http://www.w3.org/2000/svg">
  <defs
     id="defs136">
    <clipPath
       clipPathUnits="userSpaceOnUse"
       id="clipPath740">
      <path
         d="M 0,1920 H 1080 V 0 H 0 Z"
         id="path738" />
    </clipPath>
    <clipPath
       clipPathUnits="userSpaceOnUse"
       id="clipPath748">
      <path
         d="M 295.571,1489.83 H 801.61 V 1051.14 H 295.571 Z"
         id="path746" />
    </clipPath>
  </defs>
  <g
     id="g674"
     transform="matrix(1.3333333,0,0,-1.3333333,-391.41992,1989.1006)">
    <g
       id="g734">
      <g
         id="g736"
         clip-path="url(#clipPath740)">
        <g
           id="g742">
          <g
             id="g744" />
          <g
             id="g756">
            <g
               clip-path="url(#clipPath748)"
               opacity="0.649994"
               id="g754">
              <g
                 transform="translate(408.403,1138.37)"
                 id="g752">
                <path
                   d="m 0,0 c 22.681,-6.78 45.898,-11.056 69.39,-12.857 -1.943,-30.714 4.238,-54.849 16.108,-74.374 -0.675,30.031 4.126,56.765 25.427,73.558 45.713,0.725 91.405,3.286 136.857,8.204 29.114,3.15 59.851,7.476 85.014,23.599 17.945,11.5 37.037,28.027 47.044,47.18 9.838,18.828 12.69,40.755 13.24,61.73 0.769,29.342 -1.976,58.775 -8.158,87.469 -5.877,27.278 -15.332,54.716 -34.054,75.407 -21.458,23.714 -52.691,36.003 -83.543,44.429 -42.059,11.486 -85.675,17.216 -129.27,17.109 C 99.257,351.359 58.23,348.04 20.487,338.74 c -41.062,-10.118 -81.89,-30.422 -107.028,-65.549 -16.389,-22.902 -24.543,-50.737 -25.835,-78.696 -1.437,-29.994 -0.318,-71.011 15.892,-103.047 C -75.566,52.255 -35.73,10.68 0,0"
                   style="fill:#9471cc;fill-opacity:1;fill-rule:nonzero;stroke:none"
                   id="path750" />
              </g>
            </g>
          </g>
        </g>
        <g
           id="g758"
           transform="translate(408.403,1138.37)">
          <path
             d="m 0,0 c 22.681,-6.78 45.898,-11.056 69.39,-12.857 -1.943,-30.714 4.238,-54.849 16.108,-74.374 -0.675,30.031 4.126,56.765 25.427,73.558 45.713,0.725 91.405,3.286 136.857,8.204 29.114,3.15 59.851,7.476 85.014,23.599 17.945,11.5 37.037,28.027 47.044,47.18 9.838,18.828 12.69,40.755 13.24,61.73 0.769,29.342 -1.976,58.775 -8.158,87.469 -5.877,27.278 -15.332,54.716 -34.054,75.407 -21.458,23.714 -52.691,36.003 -83.543,44.429 -42.059,11.486 -85.675,17.216 -129.27,17.109 C 99.257,351.359 58.23,348.04 20.487,338.74 c -41.062,-10.118 -81.89,-30.422 -107.028,-65.549 -16.389,-22.902 -24.543,-50.737 -25.835,-78.696 -1.437,-29.994 -0.318,-71.011 15.892,-103.047 C -75.566,52.255 -35.73,10.68 0,0 Z"
             style="fill:none;stroke:#ffffff;stroke-width:4;stroke-linecap:butt;stroke-linejoin:miter;stroke-miterlimit:10;stroke-dasharray:none;stroke-opacity:1"
             id="path760" />
        </g>
      </g>
    </g>
  </g>
</svg>
